<svg width="86" height="86" viewBox="0 0 86 86" fill="none" xmlns="http://www.w3.org/2000/svg">
<circle cx="43" cy="43" r="43" fill="#5BE9B7"/>
<path d="M44.8517 26.3533L55.6683 31.1566C58.785 32.5316 58.785 34.805 55.6683 36.18L44.8517 40.9833C43.6233 41.5333 41.6067 41.5333 40.3783 40.9833L29.5617 36.18C26.445 34.805 26.445 32.5316 29.5617 31.1566L40.3783 26.3533C41.6067 25.8033 43.6233 25.8033 44.8517 26.3533Z" stroke="#293347" stroke-width="3" stroke-linecap="round" stroke-linejoin="round"/>
<path d="M26.5 41.1666C26.5 42.7066 27.655 44.485 29.0667 45.1083L41.515 50.645C42.4683 51.0666 43.55 51.0666 44.485 50.645L56.9333 45.1083C58.345 44.485 59.5 42.7066 59.5 41.1666" stroke="#293347" stroke-width="3" stroke-linecap="round" stroke-linejoin="round"/>
<path d="M26.5 50.3334C26.5 52.0384 27.5083 53.5784 29.0667 54.275L41.515 59.8117C42.4683 60.2334 43.55 60.2334 44.485 59.8117L56.9333 54.275C58.4917 53.5784 59.5 52.0384 59.5 50.3334" stroke="#293347" stroke-width="3" stroke-linecap="round" stroke-linejoin="round"/>
</svg>
