<svg width="32" height="24" viewBox="0 0 32 24" fill="none" xmlns="http://www.w3.org/2000/svg">
<path d="M32.0007 2.00009V22.0001C32.0007 23.1334 31.1341 24.0001 30.0007 24.0001H28.0007V5.84942L16.0007 14.4668L4.00073 5.84942V24.0001H2.00073C0.866066 24.0001 0.000732422 23.1334 0.000732422 22.0001V2.00009C0.000732422 1.43342 0.216732 0.933423 0.575399 0.57609C0.762578 0.389903 0.985103 0.24303 1.22988 0.144111C1.47466 0.0451922 1.73675 -0.00377509 2.00073 9.01579e-05H2.6674L16.0007 9.66676L29.3341 9.01579e-05H30.0007C30.5674 9.01579e-05 31.0674 0.21609 31.4261 0.57609C31.7861 0.933423 32.0007 1.43342 32.0007 2.00009Z" fill="#231F20"/>
</svg>
