<svg width="35" height="35" viewBox="0 0 35 35" fill="none" xmlns="http://www.w3.org/2000/svg">
<path d="M17.5007 1.45816C13.2912 1.41538 9.23689 3.04571 6.22886 5.99084C3.22084 8.93597 1.50522 12.9549 1.45905 17.1644C1.47527 20.4911 2.54542 23.7271 4.5158 26.4075C6.48619 29.088 9.2554 31.075 12.4257 32.0832C13.2278 32.229 13.5195 31.7477 13.5195 31.3248C13.5195 30.9019 13.5195 29.9686 13.5195 28.6561C9.05696 29.604 8.10904 26.5561 8.10904 26.5561C7.81198 25.5993 7.18043 24.7813 6.32988 24.2519C4.87155 23.2894 6.44655 23.304 6.44655 23.304C6.95062 23.3714 7.4329 23.552 7.8572 23.8324C8.28151 24.1127 8.63684 24.4855 8.89654 24.9227C9.34911 25.7075 10.0917 26.2832 10.9645 26.5259C11.8373 26.7687 12.7705 26.6591 13.5632 26.2207C13.6447 25.422 14.0064 24.6781 14.584 24.1207C11.0257 23.7269 7.29238 22.3852 7.29238 16.3623C7.26056 14.7912 7.84107 13.2694 8.91113 12.1186C8.42379 10.7697 8.48134 9.28403 9.07154 7.97691C9.07154 7.97691 10.4278 7.55399 13.4465 9.58107C16.0743 8.88084 18.8396 8.88084 21.4674 9.58107C24.5299 7.55399 25.8424 7.97691 25.8424 7.97691C26.4326 9.28403 26.4901 10.7697 26.0028 12.1186C27.0977 13.2483 27.7097 14.7599 27.709 16.3332C27.709 22.3707 23.9465 23.6977 20.4174 24.0915C20.8038 24.4667 21.1023 24.9228 21.2914 25.4271C21.4805 25.9314 21.5556 26.4714 21.5111 27.0082V31.3102C21.5111 31.3102 21.8028 32.229 22.6049 32.0686C25.7662 31.0542 28.5261 29.0667 30.4904 26.39C32.4547 23.7134 33.5228 20.4844 33.5424 17.1644C33.4962 12.9549 31.7806 8.93597 28.7726 5.99084C25.7645 3.04571 21.7102 1.41538 17.5007 1.45816Z" fill="#231F20"/>
</svg>
