<svg width="32" height="24" viewBox="0 0 32 24" fill="none" xmlns="http://www.w3.org/2000/svg">
<path d="M32 2.00021V22.0002C32 23.1335 31.1333 24.0002 30 24.0002H28V5.84955L16 14.4669L4 5.84955V24.0002H2C0.865333 24.0002 0 23.1335 0 22.0002V2.00021C0 1.43355 0.216 0.933545 0.574667 0.576212C0.761846 0.390025 0.98437 0.243152 1.22915 0.144233C1.47393 0.0453142 1.73602 -0.00365302 2 0.000212228H2.66667L16 9.66688L29.3333 0.000212228H30C30.5667 0.000212228 31.0667 0.216212 31.4253 0.576212C31.7853 0.933545 32 1.43355 32 2.00021Z" fill="white"/>
</svg>
