<svg width="32" height="32" viewBox="0 0 32 32" fill="none" xmlns="http://www.w3.org/2000/svg">
<path d="M27.2634 27.2692H22.5247V19.8439C22.5247 18.0732 22.4887 15.7945 20.0554 15.7945C17.5847 15.7945 17.2074 17.7212 17.2074 19.7132V27.2692H12.4687V11.9999H17.0207V14.0812H17.0821C17.7181 12.8812 19.2647 11.6145 21.5754 11.6145C26.3767 11.6145 27.2647 14.7745 27.2647 18.8879L27.2634 27.2692ZM7.11673 9.91055C6.75524 9.91072 6.39725 9.8396 6.06327 9.70127C5.72929 9.56293 5.42588 9.36008 5.17038 9.10434C4.91489 8.8486 4.71234 8.54499 4.57432 8.21087C4.43631 7.87676 4.36554 7.51871 4.36607 7.15721C4.36633 6.61292 4.52799 6.08092 4.8306 5.62851C5.13322 5.17609 5.56319 4.82357 6.06615 4.61552C6.56912 4.40747 7.12248 4.35324 7.65626 4.45968C8.19005 4.56613 8.68028 4.82847 9.06497 5.21353C9.44965 5.59859 9.71152 6.08908 9.81745 6.62296C9.92337 7.15685 9.86861 7.71016 9.66007 8.21292C9.45154 8.71568 9.0986 9.14532 8.64589 9.44749C8.19318 9.74966 7.66103 9.91081 7.11673 9.91055ZM9.49273 27.2692H4.74073V11.9999H9.49273V27.2692ZM29.6341 -0.00012207H2.36207C1.05673 -0.00012207 0.000732422 1.03188 0.000732422 2.30521V29.6945C0.000732422 30.9692 1.05673 31.9999 2.36207 31.9999H29.6301C30.9341 31.9999 32.0007 30.9692 32.0007 29.6945V2.30521C32.0007 1.03188 30.9341 -0.00012207 29.6301 -0.00012207H29.6341Z" fill="#231F20"/>
</svg>
