<svg width="32" height="28" viewBox="0 0 32 28" fill="none" xmlns="http://www.w3.org/2000/svg">
<path d="M8.8827 27.989C11.4699 28.0756 14.0482 27.6427 16.4653 26.7158C18.8823 25.789 21.0891 24.387 22.9551 22.5928C24.8211 20.7985 26.3085 18.6484 27.3294 16.2696C28.3503 13.8907 28.8839 11.3314 28.8989 8.74273C30.0845 7.27548 30.9649 5.58603 31.4884 3.77368C31.5274 3.63049 31.5243 3.47906 31.4793 3.33762C31.4343 3.19618 31.3494 3.07076 31.2347 2.97647C31.1201 2.88218 30.9807 2.82304 30.8332 2.80616C30.6857 2.78928 30.5365 2.8154 30.4036 2.88135C29.7833 3.17994 29.0849 3.27639 28.4069 3.15711C27.7289 3.03783 27.1054 2.70884 26.6243 2.21648C26.0101 1.54387 25.2671 1.00139 24.4394 0.62118C23.6117 0.240972 22.7161 0.0307719 21.8056 0.00303459C20.8952 -0.0247027 19.9885 0.130587 19.1391 0.459702C18.2898 0.788818 17.5152 1.28506 16.8612 1.91903C15.9657 2.78627 15.3098 3.87042 14.9572 5.06611C14.6046 6.26181 14.5674 7.52838 14.8491 8.74273C8.98768 9.09266 4.96345 6.31069 1.74406 2.49642C1.64735 2.3869 1.52083 2.3079 1.37996 2.26909C1.23909 2.23027 1.08997 2.23332 0.950808 2.27785C0.811643 2.32239 0.688457 2.40648 0.596293 2.51986C0.504129 2.63325 0.446976 2.77101 0.431814 2.91634C-0.181497 6.31843 0.260923 9.82673 1.69965 12.97C3.13838 16.1134 5.50452 18.7411 8.48027 20.5005C6.48502 22.7887 3.68306 24.2179 0.65927 24.4897C0.497273 24.5166 0.347728 24.5934 0.231567 24.7095C0.115406 24.8256 0.0384419 24.975 0.0114459 25.137C-0.0155501 25.299 0.00877332 25.4654 0.0810119 25.6128C0.153251 25.7603 0.269789 25.8815 0.414317 25.9594C3.04497 27.2741 5.94191 27.9684 8.8827 27.989Z" fill="#231F20"/>
</svg>
