<svg width="32" height="28" viewBox="0 0 32 28" fill="none" xmlns="http://www.w3.org/2000/svg">
<path d="M8.88196 27.9892C11.4692 28.0757 14.0475 27.6428 16.4646 26.7159C18.8816 25.7891 21.0883 24.3871 22.9543 22.5929C24.8203 20.7986 26.3077 18.6486 27.3286 16.2697C28.3495 13.8908 28.8832 11.3315 28.8981 8.74285C30.0838 7.2756 30.9642 5.58616 31.4876 3.7738C31.5267 3.63061 31.5236 3.47918 31.4786 3.33774C31.4336 3.1963 31.3486 3.07088 31.234 2.97659C31.1194 2.8823 30.9799 2.82316 30.8325 2.80628C30.685 2.78941 30.5358 2.81552 30.4028 2.88147C29.7826 3.18006 29.0842 3.27651 28.4062 3.15723C27.7282 3.03795 27.1047 2.70896 26.6236 2.2166C26.0093 1.54399 25.2664 1.00151 24.4387 0.621302C23.611 0.241094 22.7153 0.030894 21.8049 0.00315666C20.8945 -0.0245807 19.9877 0.130709 19.1384 0.459825C18.2891 0.78894 17.5145 1.28518 16.8604 1.91916C15.965 2.78639 15.309 3.87054 14.9565 5.06624C14.6039 6.26193 14.5666 7.5285 14.8483 8.74285C8.98694 9.09278 4.96271 6.31082 1.74333 2.49655C1.64661 2.38702 1.5201 2.30802 1.37923 2.26921C1.23836 2.2304 1.08924 2.23344 0.950076 2.27797C0.81091 2.32251 0.687724 2.4066 0.59556 2.51998C0.503396 2.63337 0.446244 2.77114 0.431081 2.91647C-0.18223 6.31855 0.26019 9.82685 1.69892 12.9702C3.13765 16.1135 5.50379 18.7413 8.47954 20.5006C6.48429 22.7889 3.68232 24.218 0.658538 24.4898C0.49654 24.5167 0.346996 24.5935 0.230835 24.7096C0.114673 24.8257 0.0377095 24.9752 0.0107135 25.1371C-0.0162825 25.2991 0.0080409 25.4655 0.0802795 25.6129C0.152518 25.7604 0.269056 25.8816 0.413585 25.9596C3.04424 27.2742 5.94118 27.9685 8.88196 27.9892Z" fill="white"/>
</svg>
